<?xml version="1.0" encoding="UTF-8"?>
<!DOCTYPE svg PUBLIC "-//W3C//DTD SVG 1.1//EN" "http://www.w3.org/Graphics/SVG/1.1/DTD/svg11.dtd">
<!-- Creator: CorelDRAW 2020 (64-Bit) -->
<svg xmlns="http://www.w3.org/2000/svg" xml:space="preserve" width="29.3036mm" height="32.1827mm" version="1.1" style="shape-rendering:geometricPrecision; text-rendering:geometricPrecision; image-rendering:optimizeQuality; fill-rule:evenodd; clip-rule:evenodd"
viewBox="0 0 1186.79 1303.4"
 xmlns:xlink="http://www.w3.org/1999/xlink"
 xmlns:xodm="http://www.corel.com/coreldraw/odm/2003">
 <defs>
  <style type="text/css">
   <![CDATA[
    .fil0 {fill:#0099C5;fill-rule:nonzero}
    .fil1 {fill:#6F499D;fill-rule:nonzero}
   ]]>
  </style>
 </defs>
 <g id="Слой_x0020_1">
  <metadata id="CorelCorpID_0Corel-Layer"/>
  <path class="fil0" d="M958.81 185.4l52.51 -92.53c5.82,-10.23 2.22,-23.25 -8.03,-29.06 -10.23,-5.82 -23.24,-2.23 -29.06,8l-50.58 89.12 -61.78 108.86c-0.19,0.3 -0.34,0.64 -0.49,0.94 11.4,8.32 22.29,16.97 32.74,25.93 76.93,65.75 128.57,148.22 152.28,248.97 27.1,115.2 12.1,225.62 -44.53,329.5 -50.22,92.14 -123.76,160.36 -219.83,202.58 -113.61,49.91 -227.69,53.35 -341.81,14.93 -6.74,-2.29 -13.5,-4.7 -20.23,-7.29 -6.67,-2.5 -13.32,-5.17 -19.99,-8l-61.58 108.52 -48.62 85.65c-5.79,10.23 -2.22,23.27 8.04,29.06 3.33,1.89 6.91,2.8 10.51,2.8 7.4,0 14.62,-3.9 18.54,-10.82l50.69 -89.35c278.46,111.04 616.23,-5 754.35,-304.22 125.7,-272.24 21.5,-565.71 -173.15,-713.6z"/>
  <path class="fil0" d="M311.95 1023.28c-5.7,-4.36 -11.24,-8.8 -16.67,-13.34 -47.41,-39.71 -85.64,-86.9 -114.5,-142.29 -35.67,-68.49 -53.43,-141.39 -52.95,-218.63 0.47,-77.48 18.92,-150.51 56.12,-218.41 51.25,-93.54 125.46,-163.01 223.38,-205.33 114.64,-49.54 229.44,-51.98 343.99,-12.03 13.19,4.58 26.42,9.77 39.59,15.5l61.65 -108.61 50.09 -88.27c5.82,-10.26 2.22,-23.28 -8.03,-29.09 -10.23,-5.82 -23.28,-2.23 -29.06,8.04l-52.09 91.77c-281.95,-114.41 -621.23,3.64 -758.98,303.3 -126.21,274.69 -19.06,569.12 177.11,715.73l-50.42 88.88c-5.83,10.26 -2.23,23.28 8.01,29.09 3.33,1.88 6.96,2.77 10.52,2.77 7.4,0 14.62,-3.87 18.54,-10.81l48.66 -85.75 62.34 -109.82c-5.91,-4.14 -11.66,-8.37 -17.3,-12.7z"/>
  <path class="fil1" d="M676.5 787.76c68.18,-119.23 130,-231.87 198.14,-351.04l-18.3 0c-36.09,-0.09 -72.24,-0.11 -108.34,-0.36 -3.93,-0.03 -5.97,1.36 -7.8,4.63 -8.34,14.89 -16.94,29.65 -25.43,44.48 -37.26,65.1 -68.38,124.16 -105.66,189.25 16.19,27.16 43.98,73.81 67.4,113.04z"/>
  <path class="fil1" d="M589.56 702.82c-0.11,0.16 -0.23,0.3 -0.33,0.46 -4.57,-7.64 -8.72,-14.24 -12.59,-21.04 -2.54,-4.46 -5.1,-8.92 -7.64,-13.39l-0.06 -0.1 0 -0.01c-43.11,-75.38 -86.21,-150.81 -129.15,-226.28 -2.57,-4.5 -5.4,-6.14 -10.62,-6.12 -41.14,0.21 -82.26,0.11 -124.92,0.11 95.27,166.61 189.87,331.99 285.26,498.79 22.85,-39.92 45.61,-79.74 68.35,-119.5l-68.32 -112.91z"/>
 </g>
</svg>
